<svg width="44" height="50" viewBox="0 0 44 50" fill="none" xmlns="http://www.w3.org/2000/svg">
<g filter="url(#filter0_d_225_2736)">
<path fill-rule="evenodd" clip-rule="evenodd" d="M37 21.5408C37 32.7493 28.9411 41.8356 19 41.8356C9.05889 41.8356 1 32.7493 1 21.5408V20.347C1 9.13853 9.05889 0.0522461 19 0.0522461C28.9411 0.0522461 37 9.13853 37 20.347V21.5408Z" fill="url(#paint0_linear_225_2736)"/>
</g>
<g clip-path="url(#clip0_225_2736)">
<mask id="mask0_225_2736" style="mask-type:luminance" maskUnits="userSpaceOnUse" x="7" y="7" width="25" height="25">
<path fill-rule="evenodd" clip-rule="evenodd" d="M7 7.01611H31.7059V26.0161C31.7059 28.7775 29.4673 31.0161 26.7059 31.0161H12C9.23858 31.0161 7 28.7775 7 26.0161V7.01611Z" fill="white"/>
</mask>
<g mask="url(#mask0_225_2736)">
<path fill-rule="evenodd" clip-rule="evenodd" d="M13.1941 20.2659H28.3596C29.0703 20.2659 29.6463 19.7063 29.6463 19.0159C29.6463 18.3256 29.0703 17.7659 28.3596 17.7659H13.1941L18.2765 12.8287C18.7789 12.3406 18.7789 11.5491 18.2765 11.0609C18.2137 10.9999 18.1459 10.9465 18.0746 10.9008C17.5751 10.5804 16.8964 10.6338 16.4567 11.0609L9.17767 18.132C8.67515 18.6202 8.67515 19.4117 9.17767 19.8998L16.4567 26.9709C16.9592 27.459 17.7739 27.459 18.2765 26.9709C18.7789 26.4827 18.7789 25.6913 18.2765 25.2031L13.1941 20.2659Z" fill="#15097A"/>
</g>
</g>
<defs>
<filter id="filter0_d_225_2736" x="0" y="0.0522461" width="44" height="49.7832" filterUnits="userSpaceOnUse" color-interpolation-filters="sRGB">
<feFlood flood-opacity="0" result="BackgroundImageFix"/>
<feColorMatrix in="SourceAlpha" type="matrix" values="0 0 0 0 0 0 0 0 0 0 0 0 0 0 0 0 0 0 127 0" result="hardAlpha"/>
<feOffset dx="3" dy="4"/>
<feGaussianBlur stdDeviation="2"/>
<feColorMatrix type="matrix" values="0 0 0 0 0 0 0 0 0 0.278431 0 0 0 0 0.537255 0 0 0 0.25098 0"/>
<feBlend mode="normal" in2="BackgroundImageFix" result="effect1_dropShadow_225_2736"/>
<feBlend mode="normal" in="SourceGraphic" in2="effect1_dropShadow_225_2736" result="shape"/>
</filter>
<linearGradient id="paint0_linear_225_2736" x1="1" y1="0.0522461" x2="1" y2="41.8356" gradientUnits="userSpaceOnUse">
<stop offset="0.374046" stop-color="white"/>
<stop offset="0.885496" stop-color="white"/>
<stop offset="1" stop-color="#B7DFC8"/>
</linearGradient>
<clipPath id="clip0_225_2736">
<rect width="24" height="27.8555" fill="white" transform="translate(7 7.01611)"/>
</clipPath>
</defs>
</svg>
